<svg width="169" height="47" viewBox="0 0 169 47" fill="none" xmlns="http://www.w3.org/2000/svg">
<path d="M0 46.8V9.36C0 7.62667 0.411667 6.06667 1.235 4.68C2.10167 3.25 3.22833 2.12333 4.615 1.3C6.045 0.433333 7.62667 0 9.36 0H37.375C39.1083 0 40.6683 0.433333 42.055 1.3C43.485 2.12333 44.6333 3.25 45.5 4.68C46.3667 6.06667 46.8 7.62667 46.8 9.36V46.8H37.31V31.395H9.36V46.8H0ZM9.36 22.035H37.31V9.815C37.31 9.685 37.2667 9.59833 37.18 9.555C37.1367 9.46833 37.05 9.425 36.92 9.425H9.75C9.62 9.425 9.51167 9.46833 9.425 9.555C9.38167 9.59833 9.36 9.685 9.36 9.815V22.035Z" fill="white"/>
<path d="M52.9059 46.8V0H62.2009V46.8H52.9059Z" fill="white"/>
<path d="M104.897 46.8L91.0523 30.29H103.337L114.777 43.875V46.8H104.897ZM68.1073 46.8V0.0649992H105.482C107.216 0.0649992 108.776 0.498332 110.162 1.365C111.592 2.18833 112.741 3.315 113.607 4.745C114.474 6.175 114.907 7.735 114.907 9.425V21.775C114.907 23.465 114.474 25.025 113.607 26.455C112.741 27.8417 111.592 28.9683 110.162 29.835C108.776 30.6583 107.216 31.07 105.482 31.07L77.4673 31.135V46.8H68.1073ZM77.8573 21.645H105.027C105.157 21.645 105.244 21.6233 105.287 21.58C105.374 21.4933 105.417 21.4067 105.417 21.32V9.815C105.417 9.685 105.374 9.59833 105.287 9.555C105.244 9.46833 105.157 9.425 105.027 9.425H77.8573C77.7273 9.425 77.619 9.46833 77.5323 9.555C77.489 9.59833 77.4673 9.685 77.4673 9.815V21.32C77.4673 21.4067 77.489 21.4933 77.5323 21.58C77.619 21.6233 77.7273 21.645 77.8573 21.645Z" fill="white"/>
<path d="M130.975 46.8C129.242 46.8 127.66 46.3883 126.23 45.565C124.843 44.6983 123.717 43.5717 122.85 42.185C122.027 40.755 121.615 39.1733 121.615 37.44V9.36C121.615 7.62667 122.027 6.06667 122.85 4.68C123.717 3.25 124.843 2.12333 126.23 1.3C127.66 0.433333 129.242 0 130.975 0H159.055C160.745 0 162.283 0.433333 163.67 1.3C165.1 2.12333 166.248 3.25 167.115 4.68C167.982 6.06667 168.415 7.62667 168.415 9.36V37.44C168.415 39.1733 167.982 40.755 167.115 42.185C166.248 43.5717 165.1 44.6983 163.67 45.565C162.283 46.3883 160.745 46.8 159.055 46.8H130.975ZM131.365 37.375H158.535C158.665 37.375 158.752 37.3533 158.795 37.31C158.882 37.2233 158.925 37.115 158.925 36.985V9.815C158.925 9.685 158.882 9.59833 158.795 9.555C158.752 9.46833 158.665 9.425 158.535 9.425H131.365C131.235 9.425 131.127 9.46833 131.04 9.555C130.997 9.59833 130.975 9.685 130.975 9.815V36.985C130.975 37.115 130.997 37.2233 131.04 37.31C131.127 37.3533 131.235 37.375 131.365 37.375Z" fill="white"/>
</svg>
