<svg width="672" height="343" viewBox="0 0 672 343" fill="none" xmlns="http://www.w3.org/2000/svg">
<path d="M418.094 164.813C363.479 152.473 355.019 144.008 342.686 89.3615C342.121 86.8638 339.899 85.0853 337.331 85.0853C334.764 85.0853 332.542 86.8638 331.977 89.3615C319.638 144.008 311.184 152.473 256.569 164.813C254.067 165.384 252.29 167.602 252.29 170.171C252.29 172.74 254.067 174.957 256.569 175.528C311.184 187.874 319.638 196.338 331.977 250.98C332.542 253.477 334.764 255.256 337.331 255.256C339.899 255.256 342.121 253.477 342.686 250.98C355.025 196.338 363.479 187.874 418.094 175.528C420.596 174.957 422.368 172.74 422.368 170.171C422.368 167.602 420.59 165.384 418.094 164.813Z" fill="white"/>
<path fill-rule="evenodd" clip-rule="evenodd" d="M336 343C475.901 343 604.672 245.852 659.818 197.79C676.06 183.635 676.06 159.365 659.818 145.21C604.672 97.1477 475.901 0 336 0C196.099 0 67.3281 97.1476 12.1815 145.21C-4.06048 159.365 -4.06051 183.635 12.1815 197.79C67.3281 245.852 196.099 343 336 343ZM337.329 311.093C415.116 311.093 478.175 248 478.175 170.171C478.175 92.3412 415.116 29.2481 337.329 29.2481C259.542 29.2481 196.483 92.3412 196.483 170.171C196.483 248 259.542 311.093 337.329 311.093ZM418.094 164.813C363.479 152.473 355.019 144.008 342.686 89.3615C342.121 86.8638 339.899 85.0853 337.331 85.0853C334.764 85.0853 332.542 86.8638 331.977 89.3615C319.638 144.008 311.184 152.473 256.569 164.813C254.067 165.384 252.29 167.602 252.29 170.171C252.29 172.74 254.067 174.957 256.569 175.528C311.184 187.874 319.638 196.338 331.977 250.98C332.542 253.477 334.764 255.256 337.331 255.256C339.899 255.256 342.121 253.477 342.686 250.98C355.025 196.338 363.479 187.874 418.094 175.528C420.596 174.957 422.368 172.74 422.368 170.171C422.368 167.602 420.59 165.384 418.094 164.813Z" fill="white"/>
</svg>
