<svg width="187" height="187" viewBox="0 0 187 187" fill="none" xmlns="http://www.w3.org/2000/svg">
<path d="M182.301 87.6125C122.252 74.052 112.95 64.7503 99.3903 4.69913C98.769 1.95445 96.326 0 93.503 0C90.68 0 88.237 1.95445 87.6157 4.69913C74.0496 64.7503 64.7542 74.052 4.70501 87.6125C1.95439 88.2399 0 90.6769 0 93.5C0 96.3231 1.95439 98.7601 4.70501 99.3875C64.7542 112.954 74.0496 122.256 87.6157 182.301C88.237 185.046 90.68 187 93.503 187C96.326 187 98.769 185.046 99.3903 182.301C112.956 122.256 122.252 112.954 182.301 99.3875C185.052 98.7601 187 96.3231 187 93.5C187 90.6769 185.046 88.2399 182.301 87.6125Z" fill="white"/>
</svg>
