<svg width="156" height="156" viewBox="0 0 156 156" fill="none" xmlns="http://www.w3.org/2000/svg">
<path fill-rule="evenodd" clip-rule="evenodd" d="M155.992 146.632C155.992 151.79 151.786 156 146.633 156H114.736C109.583 156 105.377 151.79 105.377 146.632V107.643C105.377 100.602 99.6216 94.8411 92.5875 94.8411H63.4047C56.3708 94.8411 50.6149 100.602 50.6149 107.643V146.632C50.6149 151.79 46.409 156 41.2561 156H9.35879C4.20573 156 0 151.79 0 146.632V78.0559C0 71.8639 2.20562 66.5335 6.58362 62.158L62.1141 6.56836C70.8636 -2.18945 85.1367 -2.18945 93.8859 6.56836L149.416 62.1512C153.788 66.5267 156 71.8571 156 78.0491L155.992 146.632Z" fill="white"/>
</svg>
